<svg xmlns="http://www.w3.org/2000/svg" viewBox="0 0 533.5 544.3" width="24" height="24">
  <path fill="#4285f4" d="M533.5 278.4c0-17.4-1.4-34.9-4.3-51.9H272v98.2h147.3c-6.4 34.7-25.5 64.2-54.3 83.8v69.4h87.7c51.4-47.3 80.8-117.1 80.8-199.5z"/>
  <path fill="#34a853" d="M272 544.3c73.8 0 135.7-24.5 180.9-66.8l-87.7-69.4c-24.4 16.3-55.5 26-93.2 26-71.7 0-132.4-48.2-154.2-112.9H26.9v70.9C70.7 475.6 164.9 544.3 272 544.3z"/>
  <path fill="#fbbc04" d="M117.8 320.1c-10.3-30.4-10.3-63.1 0-93.5v-70.9H26.9c-38.6 76.6-38.6 167.8 0 244.4l90.9-70z"/>
  <path fill="#ea4335" d="M272 107.7c39.9 0 75.7 13.7 103.8 40.6l77.8-77.8C407.5 25.7 345.6 0 272 0 164.9 0 70.7 68.7 26.9 173.3l90.9 70c21.8-64.7 82.5-112.9 154.2-112.9z"/>
</svg>